HIERARCHY
ROOT Hips
{
	OFFSET 0.00000 0.00000 0.00000
	CHANNELS 6 Xposition Yposition Zposition Zrotation Yrotation Xrotation 
	JOINT LHipJoint
	{
		OFFSET 0 0 0
		CHANNELS 3 Zrotation Yrotation Xrotation
		JOINT LeftUpLeg
		{
			OFFSET 1.55766 -1.60504 1.11378
			CHANNELS 3 Zrotation Yrotation Xrotation
			JOINT LeftLeg
			{
				OFFSET 2.29047 -6.29302 0.00000
				CHANNELS 3 Zrotation Yrotation Xrotation
				JOINT LeftFoot
				{
					OFFSET 2.52265 -6.93093 0.00000
					CHANNELS 3 Zrotation Yrotation Xrotation
					JOINT LeftToeBase
					{
						OFFSET 0.17633 -0.48446 2.02656
						CHANNELS 3 Zrotation Yrotation Xrotation
						End Site
						{
							OFFSET 0.00000 -0.00000 1.04989
						}
					}
				}
			}
		}
	}
	JOINT RHipJoint
	{
		OFFSET 0 0 0
		CHANNELS 3 Zrotation Yrotation Xrotation
		JOINT RightUpLeg
		{
			OFFSET -1.48599 -1.60504 1.11378
			CHANNELS 3 Zrotation Yrotation Xrotation
			JOINT RightLeg
			{
				OFFSET -2.27280 -6.24448 0.00000
				CHANNELS 3 Zrotation Yrotation Xrotation
				JOINT RightFoot
				{
					OFFSET -2.50834 -6.89161 0.00000
					CHANNELS 3 Zrotation Yrotation Xrotation
					JOINT RightToeBase
					{
						OFFSET -0.26967 -0.74090 2.08741
						CHANNELS 3 Zrotation Yrotation Xrotation
						End Site
						{
							OFFSET -0.00000 -0.00000 1.10614
						}
					}
				}
			}
		}
	}
	JOINT LowerBack
	{
		OFFSET 0 0 0
		CHANNELS 3 Zrotation Yrotation Xrotation
		JOINT Spine
		{
			OFFSET 0.06481 2.02437 -0.08472
			CHANNELS 3 Zrotation Yrotation Xrotation
			JOINT Spine1
			{
				OFFSET 0.00015 1.96711 0.18069
				CHANNELS 3 Zrotation Yrotation Xrotation
				JOINT Neck
				{
					OFFSET 0 0 0
					CHANNELS 3 Zrotation Yrotation Xrotation
					JOINT Neck1
					{
						OFFSET -0.29961 1.68293 -0.13041
						CHANNELS 3 Zrotation Yrotation Xrotation
						JOINT Head
						{
							OFFSET 0.59697 1.61501 -0.14669
							CHANNELS 3 Zrotation Yrotation Xrotation
							End Site
							{
								OFFSET 0.22973 1.74906 -0.10148
							}
						}
					}
				}
				JOINT LeftShoulder
				{
					OFFSET 0 0 0
					CHANNELS 3 Zrotation Yrotation Xrotation
					JOINT LeftArm
					{
						OFFSET 3.37968 1.02893 0.31147
						CHANNELS 3 Zrotation Yrotation Xrotation
						JOINT LeftForeArm
						{
							OFFSET 5.19807 -0.00000 -0.00000
							CHANNELS 3 Zrotation Yrotation Xrotation
							JOINT LeftHand
							{
								OFFSET 3.09370 -0.00000 -0.00000
								CHANNELS 3 Zrotation Yrotation Xrotation
								JOINT LeftFingerBase
								{
									OFFSET 0 0 0
									CHANNELS 3 Zrotation Yrotation Xrotation
									JOINT LeftHandIndex1
									{
										OFFSET 0.67263 -0.00000 -0.00000
										CHANNELS 3 Zrotation Yrotation Xrotation
										End Site
										{
											OFFSET 0.54229 -0.00000 -0.00000
										}
									}
								}
								JOINT LThumb
								{
									OFFSET 0 0 0
									CHANNELS 3 Zrotation Yrotation Xrotation
									End Site
									{
										OFFSET 0.55057 -0.00000 0.55057
									}
								}
							}
						}
					}
				}
				JOINT RightShoulder
				{
					OFFSET 0 0 0
					CHANNELS 3 Zrotation Yrotation Xrotation
					JOINT RightArm
					{
						OFFSET -3.38254 0.96355 -0.16120
						CHANNELS 3 Zrotation Yrotation Xrotation
						JOINT RightForeArm
						{
							OFFSET -5.45222 -0.00000 -0.00000
							CHANNELS 3 Zrotation Yrotation Xrotation
							JOINT RightHand
							{
								OFFSET -3.01284 -0.00000 -0.00000
								CHANNELS 3 Zrotation Yrotation Xrotation
								JOINT RightFingerBase
								{
									OFFSET 0 0 0
									CHANNELS 3 Zrotation Yrotation Xrotation
									JOINT RightHandIndex1
									{
										OFFSET -0.62230 -0.00000 -0.00000
										CHANNELS 3 Zrotation Yrotation Xrotation
										End Site
										{
											OFFSET -0.50171 -0.00000 -0.00000
										}
									}
								}
								JOINT RThumb
								{
									OFFSET 0 0 0
									CHANNELS 3 Zrotation Yrotation Xrotation
									End Site
									{
										OFFSET -0.50937 -0.00000 0.50937
									}
								}
							}
						}
					}
				}
			}
		}
	}
}
MOTION
Frames: 12
Frame Time: .0083333
-6.8895 15.8308 39.3192 0 0 0 0 0 0 -21 0 0 0 0 0 0 0 0 0 0 0 0 0 0 21 0 0 0 0 0 0 0 0 0 0 0 0 0 0 0 0 0 0 0 0 0 0 -16 0 0 21 0 0 11 0 0 0 -8 0 0 0 0 0 0 0 0 0 0 0 0 0 0 0 0 0 0 0 0 8 0 0 0 0 0 0 0 0 0 0 0 0 0 0 0 0 0
-6.8895 15.8308 39.3192 -178.1100 -3.2748 -167.4900 0.0000 0.0000 0.0000 -19.1409 -4.1897 -25.5798 3.1530 10.9387 32.0733 1.2264 -10.9309 -20.0976 0.0006 -0.1537 -0.4224 0.0000 0.0000 0.0000 25.1997 -9.4871 -28.4291 -2.4836 -9.8080 28.3572 1.2860 30.8514 -14.3923 -0.0030 0.3516 -0.9661 4.6846 3.3925 -4.6308 -0.8188 3.5881 -8.9702 -3.4496 1.0591 -6.4212 -32.1476 -4.0297 12.2738 39.0188 -13.2208 -0.0654 20.6069 -8.8966 3.0019 0.0000 0.0000 0.0000 -84.7448 12.9648 47.3226 17.9590 -28.1046 -4.5299 -0.0000 0.0000 -35.4339 14.6146 -9.1618 -2.3774 -7.1250 0.0000 -0.0000 -8.8249 20.5675 5.2235 0.0000 0.0000 0.0000 88.5527 -8.9486 24.9373 -12.9455 21.2073 -2.4335 0.0000 0.0000 24.4741 -7.6751 -0.5252 0.0708 7.1250 -0.0000 -0.0000 14.8408 -30.3157 5.4861
-6.8974 15.8272 39.3130 -178.0610 -3.4257 -167.4430 0.0000 0.0000 0.0000 -19.0509 -4.6007 -25.5365 3.1771 10.9763 32.2000 1.2527 -10.6860 -20.2619 0.0007 -0.1669 -0.4587 0.0000 0.0000 0.0000 25.2162 -9.3948 -28.3971 -2.4864 -9.8131 28.3737 1.2080 30.6131 -14.6477 -0.0053 0.4711 -1.2946 4.7009 3.3236 -4.5611 -0.7866 3.4863 -9.0791 -3.4307 0.9939 -6.5897 -32.2490 -3.8362 13.4993 39.4899 -13.1921 -1.1098 21.0223 -9.0377 2.5349 0.0000 -0.0000 0.0000 -84.8551 13.0709 47.1564 17.8108 -27.9142 -4.4603 -0.0000 0.0000 -35.3435 14.4843 -9.2948 -2.3892 -7.1250 0.0000 -0.0000 -8.9139 20.4385 5.3037 0.0000 -0.0000 0.0000 88.5680 -9.1318 24.7365 -12.9884 21.2703 -2.4491 0.0000 0.0000 24.7352 -7.5555 -0.5080 0.0674 7.1250 -0.0000 -0.0000 14.9303 -30.2962 5.5285
-6.9070 15.8197 39.3054 -177.9660 -3.4943 -167.4160 0.0000 0.0000 0.0000 -18.9346 -4.9695 -25.4819 3.2009 11.0134 32.3252 1.2793 -10.3831 -20.4226 0.0011 -0.2146 -0.5897 0.0000 0.0000 0.0000 25.2009 -9.1314 -28.1819 -2.4874 -9.8150 28.3798 1.0972 30.2670 -15.0106 -0.0087 0.6031 -1.6572 4.7726 3.2910 -4.5856 -0.7349 3.4386 -9.0974 -3.4153 0.9644 -6.5995 -32.2914 -3.9618 14.3054 39.6683 -13.5486 -1.7961 21.1451 -9.3066 2.3789 0.0000 -0.0000 0.0000 -84.9264 13.3108 47.0015 17.9380 -28.0778 -4.5200 -0.0000 0.0000 -35.2149 14.4876 -9.1412 -2.3507 -7.1250 0.0000 -0.0000 -8.9162 20.5947 5.2734 0.0000 -0.0000 0.0000 88.4809 -9.2257 25.0186 -12.9927 21.2765 -2.4506 0.0000 0.0000 24.5683 -7.7499 -0.4967 0.0676 7.1250 -0.0000 -0.0000 14.7787 -30.2896 5.4713
-6.9165 15.8164 39.2961 -177.8970 -3.5814 -167.3980 0.0000 0.0000 0.0000 -18.8480 -5.3281 -25.3917 3.2218 11.0458 32.4345 1.3058 -10.1056 -20.5906 0.0015 -0.2486 -0.6831 0.0000 0.0000 0.0000 25.2482 -9.0976 -28.1672 -2.4901 -9.8200 28.3957 1.0410 30.0981 -15.2038 -0.0118 0.7011 -1.9268 4.8263 3.2600 -4.5528 -0.7114 3.4080 -9.0545 -3.4215 0.9521 -6.5734 -32.2577 -4.2297 14.7594 39.7841 -13.9993 -2.3812 21.1574 -9.5839 2.3484 0.0000 -0.0000 0.0000 -84.9646 13.2051 46.9579 17.8767 -27.9990 -4.4912 -0.0000 0.0000 -35.1407 14.3528 -9.1908 -2.3404 -7.1250 0.0000 -0.0000 -9.0110 20.5509 5.3398 0.0000 -0.0000 0.0000 88.4911 -9.1373 24.8993 -13.0039 21.2930 -2.4547 0.0000 0.0000 24.6237 -7.7266 -0.5100 0.0692 7.1250 -0.0000 -0.0000 14.7987 -30.3020 5.4745
-6.9261 15.8122 39.2870 -177.8220 -3.6705 -167.3860 0.0000 0.0000 0.0000 -18.7576 -5.6694 -25.3077 3.2432 11.0787 32.5456 1.3303 -9.8558 -20.7491 0.0017 -0.2686 -0.7381 0.0000 0.0000 0.0000 25.2739 -8.9856 -28.0784 -2.4916 -9.8227 28.4045 0.9640 29.8481 -15.4534 -0.0161 0.8192 -2.2514 4.8774 3.2215 -4.5243 -0.6724 3.3626 -9.0401 -3.4102 0.9292 -6.5781 -32.2527 -4.4273 15.3551 39.9329 -14.3950 -3.0023 21.2236 -9.8505 2.2635 0.0000 0.0000 0.0000 -85.0178 13.2241 46.8855 17.8681 -27.9879 -4.4872 -0.0000 0.0000 -35.0649 14.2401 -9.2006 -2.3237 -7.1250 0.0000 -0.0000 -9.0912 20.5464 5.3895 0.0000 0.0000 0.0000 88.4535 -9.1313 24.9382 -13.0192 21.3153 -2.4603 0.0000 0.0000 24.5750 -7.7528 -0.5133 0.0699 7.1250 -0.0000 -0.0000 14.7791 -30.3058 5.4654
-6.9358 15.8083 39.2771 -177.7470 -3.7582 -167.3840 0.0000 0.0000 0.0000 -18.6751 -5.9874 -25.2047 3.2597 11.1041 32.6318 1.3522 -9.6222 -20.8921 0.0019 -0.2836 -0.7792 0.0000 0.0000 0.0000 25.2962 -8.8624 -27.9844 -2.4956 -9.8299 28.4275 0.8824 29.5744 -15.7140 -0.0211 0.9383 -2.5790 4.9252 3.1854 -4.4953 -0.6332 3.3222 -9.0164 -3.3966 0.9102 -6.5728 -32.2335 -4.6515 15.9016 40.0568 -14.8192 -3.5801 21.2599 -10.1246 2.2086 -0.0000 0.0000 0.0000 -85.0592 13.2327 46.8355 17.8619 -27.9800 -4.4843 -0.0000 0.0000 -35.0055 14.1065 -9.2185 -2.3054 -7.1250 0.0000 -0.0000 -9.1861 20.5347 5.4496 -0.0000 0.0000 0.0000 88.4125 -9.1199 24.9821 -13.0357 21.3395 -2.4663 0.0000 0.0000 24.4990 -7.7811 -0.5161 0.0705 7.1250 -0.0000 -0.0000 14.7576 -30.3092 5.4558
-6.9458 15.8046 39.2666 -177.6770 -3.8451 -167.3890 0.0000 0.0000 0.0000 -18.6025 -6.2855 -25.0975 3.2761 11.1292 32.7167 1.3730 -9.4082 -21.0311 0.0020 -0.2923 -0.8030 0.0000 0.0000 0.0000 25.3111 -8.7182 -27.8736 -2.4987 -9.8355 28.4458 0.7950 29.2596 -15.9784 -0.0270 1.0610 -2.9167 4.9622 3.1483 -4.4538 -0.5943 3.2804 -8.9996 -3.3780 0.8902 -6.5827 -32.2028 -4.8582 16.4641 40.1838 -15.2205 -4.1559 21.3021 -10.3891 2.1412 -0.0000 -0.0000 0.0000 -85.0963 13.2482 46.7870 17.8439 -27.9569 -4.4758 -0.0000 0.0000 -34.9633 13.9648 -9.2649 -2.2927 -7.1250 0.0000 -0.0000 -9.2857 20.4944 5.5188 -0.0000 -0.0000 0.0000 88.3736 -9.1263 25.0088 -13.0550 21.3678 -2.4733 0.0000 0.0000 24.4301 -7.7892 -0.5196 0.0711 7.1250 -0.0000 -0.0000 14.7520 -30.3129 5.4522
-6.9558 15.8011 39.2559 -177.6120 -3.9302 -167.3970 0.0000 0.0000 0.0000 -18.5397 -6.5603 -24.9898 3.2911 11.1520 32.7943 1.3921 -9.2170 -21.1603 0.0020 -0.2919 -0.8020 0.0000 0.0000 0.0000 25.3132 -8.5331 -27.7358 -2.5015 -9.8406 28.4622 0.6985 28.8878 -16.2551 -0.0336 1.1831 -3.2528 4.9866 3.1096 -4.4028 -0.5559 3.2365 -8.9896 -3.3535 0.8692 -6.6062 -32.1543 -5.0382 17.0539 40.3220 -15.5853 -4.7447 21.3594 -10.6397 2.0494 0.0000 0.0000 0.0000 -85.1252 13.2786 46.7404 17.8261 -27.9339 -4.4675 -0.0000 0.0000 -34.9504 13.8387 -9.2907 -2.2774 -7.1250 0.0000 -0.0000 -9.3748 20.4745 5.5775 0.0000 0.0000 0.0000 88.3407 -9.1474 25.0138 -13.0748 21.3967 -2.4805 0.0000 0.0000 24.3803 -7.7835 -0.5181 0.0708 7.1250 -0.0000 -0.0000 14.7561 -30.3112 5.4544
-6.9658 15.7975 39.2448 -177.5520 -4.0083 -167.4080 0.0000 0.0000 0.0000 -18.4881 -6.8093 -24.8819 3.3047 11.1726 32.8643 1.4097 -9.0429 -21.2809 0.0019 -0.2839 -0.7801 0.0000 0.0000 0.0000 25.2984 -8.2901 -27.5640 -2.5039 -9.8450 28.4764 0.5917 28.4448 -16.5446 -0.0409 1.3052 -3.5889 4.9963 3.0709 -4.3454 -0.5202 3.1926 -8.9828 -3.3239 0.8486 -6.6374 -32.0874 -5.1702 17.6902 40.4917 -15.8827 -5.3738 21.4555 -10.8652 1.9120 -0.0000 -0.0000 0.0000 -85.1457 13.3184 46.6876 17.8101 -27.9133 -4.4600 -0.0000 0.0000 -34.9684 13.7549 -9.2997 -2.2653 -7.1250 0.0000 -0.0000 -9.4342 20.4692 5.6149 -0.0000 -0.0000 0.0000 88.3166 -9.1771 24.9924 -13.0962 21.4280 -2.4883 0.0000 0.0000 24.3685 -7.7675 -0.5090 0.0694 7.1250 -0.0000 -0.0000 14.7670 -30.3020 5.4621
-6.9757 15.7937 39.2335 -177.4940 -4.0788 -167.4240 0.0000 0.0000 0.0000 -18.4425 -7.0369 -24.7723 3.3171 11.1915 32.9283 1.4263 -8.8794 -21.3956 0.0018 -0.2720 -0.7475 0.0000 0.0000 0.0000 25.2717 -7.9871 -27.3566 -2.5059 -9.8486 28.4879 0.4757 27.9286 -16.8432 -0.0488 1.4262 -3.9224 4.9970 3.0320 -4.2853 -0.4848 3.1498 -8.9702 -3.2895 0.8298 -6.6641 -32.0030 -5.2786 18.3079 40.6796 -16.1282 -6.0249 21.5724 -11.0660 1.7515 -0.0000 -0.0000 0.0000 -85.1681 13.3704 46.5996 17.8121 -27.9160 -4.4609 -0.0000 0.0000 -34.9987 13.7032 -9.2690 -2.2491 -7.1250 0.0000 -0.0000 -9.4721 20.5028 5.6308 -0.0000 -0.0000 0.0000 88.2911 -9.2083 24.9859 -13.1284 21.4751 -2.5001 0.0000 0.0000 24.3464 -7.7220 -0.5317 0.0721 7.1250 -0.0000 -0.0000 14.8056 -30.3231 5.4695
-6.9856 15.7901 39.2213 -177.4410 -4.1353 -167.4440 0.0000 0.0000 0.0000 -18.4079 -7.2253 -24.6620 3.3280 11.2081 32.9848 1.4418 -8.7411 -21.5051 0.0015 -0.2490 -0.6843 0.0000 0.0000 0.0000 25.2337 -7.6361 -27.1226 -2.5078 -9.8520 28.4988 0.3552 27.3582 -17.1422 -0.0575 1.5470 -4.2554 4.9835 2.9924 -4.2184 -0.4498 3.1076 -8.9502 -3.2478 0.8132 -6.6871 -31.9174 -5.3906 18.8669 40.8728 -16.3674 -6.6513 21.6901 -11.2605 1.6074 -0.0000 -0.0000 0.0000 -85.1869 13.4153 46.4984 17.8229 -27.9298 -4.4660 -0.0000 0.0000 -35.0557 13.7000 -9.2152 -2.2356 -7.1250 0.0000 -0.0000 -9.4763 20.5575 5.6216 -0.0000 -0.0000 0.0000 88.2666 -9.2113 24.9734 -13.1474 21.5028 -2.5071 0.0000 0.0000 24.3474 -7.6771 -0.5405 0.0729 7.1250 -0.0000 -0.0000 14.8415 -30.3307 5.4808
